<svg xmlns="http://www.w3.org/2000/svg" xmlns:xlink="http://www.w3.org/1999/xlink" xml:space="preserve" style="shape-rendering:geometricPrecision;text-rendering:geometricPrecision;image-rendering:optimizeQuality;" viewBox="0 0 100 125" x="0px" y="0px" fill-rule="evenodd" clip-rule="evenodd"><defs><style type="text/css">
   
    .fil0 {fill:black}
   
  </style></defs><g><path class="fil0" d="M55.9221 71.0769c0.679139,-0.487799 1.35946,-1.01812 2.05041,-1.54608 7.5662,5.45083 16.8344,10.506 24.6888,12.371 -3.28585,10.395 -13.5403,16.31 -24.0734,11.2749 -22.5179,-10.7623 -43.7732,-47.5787 -41.835,-72.46 0.905913,-11.6399 11.1556,-17.5619 21.801,-15.2115 -2.31144,7.7351 -2.56774,18.2883 -1.63112,27.5671 -0.803156,0.334255 -1.60159,0.657879 -2.3634,1.00276 2.32797,11.98 12.1513,28.9963 21.3628,37.0019zm-16.9265 -38.9094c8.30203,-3.91893 11.4284,-22.6466 1.71379,-26.0742 -2.50159,8.12014 -2.74845,18.0285 -1.71379,26.0742zm20.797 36.0215c7.54494,-5.23114 25.3266,1.4256 23.438,11.5525 -8.28432,-1.8945 -16.9879,-6.6343 -23.438,-11.5525z"/></g><text x="0" y="115" fill="#000000" font-size="5px" font-weight="bold" font-family="'Helvetica Neue', Helvetica, Arial-Unicode, Arial, Sans-serif">Created by Aulia</text><text x="0" y="120" fill="#000000" font-size="5px" font-weight="bold" font-family="'Helvetica Neue', Helvetica, Arial-Unicode, Arial, Sans-serif">from the Noun Project</text></svg>